/* XPM */
static char *result[] = {
/* columns rows colors chars-per-pixel */
"32 32 160 2 ",
"   c black",
".  c #060000",
"X  c #0B0200",
"o  c #0B0201",
"O  c #0C0402",
"+  c #0E0503",
"@  c #060709",
"#  c #150906",
"$  c #1C0A07",
"%  c #1D0A07",
"&  c #1A0F0E",
"*  c #1B0F0E",
"=  c #1C110F",
"-  c #121213",
";  c #131315",
":  c #131416",
">  c #1F1717",
",  c #1F1718",
"<  c #181818",
"1  c #191919",
"2  c #191A1A",
"3  c gray10",
"4  c #181A1D",
"5  c #200C07",
"6  c #240E09",
"7  c #240F09",
"8  c #25100A",
"9  c #201818",
"0  c #251C1A",
"q  c #241C1B",
"w  c #1E1F21",
"e  c #29292B",
"r  c #2B2B2C",
"t  c #2B2B2D",
"y  c #303131",
"u  c #313131",
"i  c #460E00",
"p  c #4E0F00",
"a  c #4F0F00",
"s  c #5E1907",
"d  c #581808",
"f  c #5F1908",
"g  c #601A08",
"h  c #6D210E",
"j  c #6E2411",
"k  c #732D20",
"l  c #742E22",
"z  c #742F22",
"x  c #752F22",
"c  c #763023",
"v  c #3C3A47",
"b  c #40414F",
"n  c #41414F",
"m  c #434351",
"M  c #434452",
"N  c #454555",
"B  c #464656",
"V  c #474757",
"C  c #494959",
"Z  c #535363",
"A  c #535364",
"S  c #545464",
"D  c #555565",
"F  c #565665",
"G  c #585866",
"H  c #5A5A68",
"J  c #5A5A69",
"K  c #5B5B69",
"L  c #646472",
"P  c #676775",
"I  c #696976",
"U  c #813224",
"Y  c #823224",
"T  c #833324",
"R  c #843325",
"E  c #853425",
"W  c #883727",
"Q  c #8E3727",
"!  c #8E3728",
"~  c #8F3728",
"^  c #8C3828",
"/  c #903828",
"(  c #913928",
")  c #923929",
"_  c #963C2B",
"`  c #973C2B",
"'  c #983D2B",
"]  c #993D2C",
"[  c #9A3D2C",
"{  c #9A3E2C",
"}  c #9E402D",
"|  c #9F412E",
" . c #A0422F",
".. c #A04331",
"X. c #B3543A",
"o. c #C35639",
"O. c #C45639",
"+. c #C4573A",
"@. c #C5573A",
"#. c #C0583D",
"$. c #C3593E",
"%. c #CB5A3D",
"&. c #CB5B3E",
"*. c #CC5C3F",
"=. c #D15E3F",
"-. c #CA5E41",
";. c #CB5E41",
":. c #CF5D40",
">. c #D05E40",
",. c #D15F40",
"<. c #D15F41",
"1. c #D25F41",
"2. c #D15F42",
"3. c #D66143",
"4. c #D76243",
"5. c #D86244",
"6. c #D86345",
"7. c #D96345",
"8. c #D96445",
"9. c #D96446",
"0. c #DA6446",
"q. c #D56E53",
"w. c #D66E53",
"e. c #DB7256",
"r. c #DC7357",
"t. c #E06848",
"y. c #E16A4B",
"u. c #E26B4B",
"i. c #E37659",
"p. c #E4775A",
"a. c #9A99A6",
"s. c #9B9AA7",
"d. c #9B9BA8",
"f. c #A2A2B1",
"g. c #A4A4B3",
"h. c #A8A8B8",
"j. c #ABABBB",
"k. c #ACACBB",
"l. c #B9B9C7",
"z. c #BBBBC9",
"x. c gray78",
"c. c #C9C8C7",
"v. c #C3C3D3",
"b. c #CFCFD1",
"n. c #CACAD7",
"m. c #D0D0D1",
"M. c #D1D1D3",
"N. c #D7D7DA",
"B. c #D9D9DC",
"V. c #DCDCDD",
"C. c #DCDCDE",
"Z. c gray87",
"A. c #DFDFDF",
"S. c #F2DBD5",
"D. c #F3DCD6",
"F. c #E1E1E4",
"G. c #E7E7E9",
"H. c #E9E9EB",
"J. c #F4F4F6",
"K. c None",
/* pixels */
"K.K.K.K.K.K.K.K.K.K.K.K.K.K.K.K.K.K.K.K.K.K.K.K.K.K.K.K.K.K.K.K.",
"K.K.K.K.K.K.K.K.K.K.K.K.K.K.K.K.K.K.K.K.K.K.K.K.K.K.K.K.K.K.K.K.",
"K.K.K.K.K.K.K.K.K.K.K.K.K.K.K.K.K.K.K.K.K.K.K.K.K.K.K.K.K.K.K.K.",
"K.K.K.K.K.K.K.K.K.K.K.K.K.K.K.K.K.K.K.K.K.K.K.K.K.K.K.K.K.K.K.K.",
"K.K.K.K.K.K.K.K.K.K.K.K.K.K.K.K.K.K.K.K.K.K.K.K.K.K.K.K.K.K.K.K.",
"K.K.K.K.K.K.K.K.K.K.K.K.K.K.K.K.K.K.K.K.K.K.K.K.K.K.K.K.K.K.K.K.",
"K.K.K.K.K.K.K.K.K.K.K.K.a a a a a a a a K.K.K.K.K.K.K.K.K.K.K.K.",
"K.K.K.K.K.K.K.K.K.K.K.K.f g g g g g g f K.K.K.K.K.K.K.K.K.K.K.K.",
"K.K.K.K.K.K.K.K.K.K.p s o.=.>.>.,.,.1.+.s p K.K.K.K.K.K.K.K.K.K.",
"K.K.K.K.K.K.K.K.K.K.s j q.p.y.t.8.6.9.&.h s K.K.K.K.K.K.K.K.K.K.",
"K.K.K.K.K.K.K.K.p s O.w.S.D.i.5. .' ' | *.@.s p K.K.K.K.K.K.K.K.",
"K.K.K.K.K.K.K.K.s h %.r.D.D.i.4.' ~ ~ ` 2.*.h s K.K.K.K.K.K.K.K.",
"K.K.K.K.K.K.a g +.&.} ..e.p.u.7.{ / / ( ` | &.+.g a K.K.K.K.K.K.",
"K.K.K.K.K.K.i d <.9.' ` :.3.-.#.W U ! / ~ ' 9.<.d i K.K.K.K.K.K.",
"K.K.K.K.K.K.. 5 ;.0.] / [ ^ 8 # + $ T ) / ] 0.;.5 . K.K.K.K.K.K.",
"K.K.K.K.K.K.@ = X.$._ Q Y l , : : 9 z T Q _ $.X.= @ K.K.K.K.K.K.",
"K.K.K.K.K.K.n v & 6 E R % 9 a.k.k.a.9 % R E 7 * v b K.K.K.K.K.K.",
"K.K.K.K.K.K.C M w q c k O : k.v.v.k.: O k x > 4 m C K.K.K.K.K.K.",
"K.K.K.K.K.K.V G b.c.0 X   ; k.v.v.k.;   o > s.f.Z V K.K.K.K.K.K.",
"K.K.K.K.K.K.V K B.M.y 1 3 r d.k.k.d.r 3 2 t g.j.D V K.K.K.K.K.K.",
"K.K.K.K.K.K.K.K.H I m.A.A.x.e - - e x.A.A.b.L S K.K.K.K.K.K.K.K.",
"K.K.K.K.K.K.K.K.N H N.H.J.C.u < < u C.J.H.N.H B K.K.K.K.K.K.K.K.",
"K.K.K.K.K.K.K.K.K.K.H P z.n.V.Z.Z.V.n.z.P H K.K.K.K.K.K.K.K.K.K.",
"K.K.K.K.K.K.K.K.K.K.B A h.l.F.G.G.F.l.h.A B K.K.K.K.K.K.K.K.K.K.",
"K.K.K.K.K.K.K.K.K.K.K.K.D F J K K J F D K.K.K.K.K.K.K.K.K.K.K.K.",
"K.K.K.K.K.K.K.K.K.K.K.K.V V V V V V V V K.K.K.K.K.K.K.K.K.K.K.K.",
"K.K.K.K.K.K.K.K.K.K.K.K.K.K.K.K.K.K.K.K.K.K.K.K.K.K.K.K.K.K.K.K.",
"K.K.K.K.K.K.K.K.K.K.K.K.K.K.K.K.K.K.K.K.K.K.K.K.K.K.K.K.K.K.K.K.",
"K.K.K.K.K.K.K.K.K.K.K.K.K.K.K.K.K.K.K.K.K.K.K.K.K.K.K.K.K.K.K.K.",
"K.K.K.K.K.K.K.K.K.K.K.K.K.K.K.K.K.K.K.K.K.K.K.K.K.K.K.K.K.K.K.K.",
"K.K.K.K.K.K.K.K.K.K.K.K.K.K.K.K.K.K.K.K.K.K.K.K.K.K.K.K.K.K.K.K.",
"K.K.K.K.K.K.K.K.K.K.K.K.K.K.K.K.K.K.K.K.K.K.K.K.K.K.K.K.K.K.K.K."
};
