/* XPM */
static char *_3701d5f828646ced262e7d3fee3bc5av441yOvIKDcjGPHq[] = {
/* columns rows colors chars-per-pixel */
"32 29 216 2 ",
"   c #000000",
".  c #0A0701",
"X  c #0E0A02",
"o  c #0B0D0B",
"O  c #120D03",
"+  c #151106",
"@  c #1C1505",
"#  c #13110B",
"$  c #1C170A",
"%  c #1E190B",
"&  c #020618",
"*  c #1B1A14",
"=  c #251B04",
"-  c #241C0A",
";  c #2D1E06",
":  c #2D2105",
">  c #2D220A",
",  c #2E280E",
"<  c #33250C",
"1  c #3E2F0C",
"2  c #2B261E",
"3  c #362B13",
"4  c #3B2C12",
"5  c #38321D",
"6  c #0F1323",
"7  c #1A1826",
"8  c #23273D",
"9  c #282A3B",
"0  c #393734",
"q  c #342F28",
"w  c #46340B",
"e  c #4C3709",
"r  c #543D0A",
"t  c #413115",
"y  c #493A15",
"u  c #523E1B",
"i  c #443A2D",
"p  c #5D4109",
"a  c #56401A",
"s  c #744C02",
"d  c #734D0B",
"f  c #6A4E1C",
"g  c #6D5210",
"h  c #65571E",
"j  c #7A5B13",
"k  c #735514",
"l  c #77560A",
"z  c #594C2F",
"x  c #4C4E37",
"c  c #464637",
"v  c #514833",
"b  c #59532D",
"n  c #634B21",
"m  c #6C5123",
"M  c #765525",
"N  c #695B3C",
"B  c #7C6020",
"V  c #7F6E37",
"C  c #1D2842",
"Z  c #283142",
"A  c #484A44",
"S  c #4A524F",
"D  c #51585A",
"F  c #5F6045",
"G  c #686346",
"H  c #706C52",
"J  c #7D7953",
"K  c #727764",
"L  c #955E0B",
"P  c #825A09",
"I  c #9C6A07",
"U  c #9D6C0C",
"Y  c #956507",
"T  c #9B730E",
"R  c #836214",
"E  c #896613",
"W  c #8D6A14",
"Q  c #946C14",
"!  c #9D6410",
"~  c #9D7513",
"^  c #9B741B",
"/  c #A36B0F",
"(  c #A2610C",
")  c #A5740B",
"_  c #AA790E",
"`  c #A3750A",
"'  c #B37E0A",
"]  c #A66B15",
"[  c #A46813",
"{  c #A37513",
"}  c #A37914",
"|  c #A97C16",
" . c #AE741B",
".. c #A57C1A",
"X. c #AB7E1B",
"o. c #A77716",
"O. c #B27D14",
"+. c #B07C1A",
"@. c #866926",
"#. c #936E29",
"$. c #8D7B2E",
"%. c #9C752F",
"&. c #837A3E",
"*. c #9A7938",
"=. c #846A34",
"-. c #A0772C",
";. c #A2782D",
":. c #AD7F29",
">. c #AA7A27",
",. c #B27F23",
"<. c #B77722",
"1. c #A57934",
"2. c #846D43",
"3. c #B4800F",
"4. c #AF8113",
"5. c #AD811D",
"6. c #B58414",
"7. c #B2831B",
"8. c #BC891C",
"9. c #AE8121",
"0. c #AD882E",
"q. c #A9862E",
"w. c #B28524",
"e. c #BA8A24",
"r. c #B6892A",
"t. c #BB8B2D",
"y. c #B98429",
"u. c #A5833B",
"i. c #B38932",
"p. c #BD8C33",
"a. c #BD8D3A",
"s. c #B88634",
"d. c #B59139",
"f. c #BB933D",
"g. c #BC9437",
"h. c #BBA33E",
"j. c #C08E1C",
"k. c #C3901C",
"l. c #CD961C",
"z. c #C58E2B",
"x. c #C18A26",
"c. c #C3902C",
"v. c #C9962E",
"b. c #C99427",
"n. c #D49B28",
"m. c #C08E33",
"M. c #C08F3A",
"N. c #C38431",
"B. c #C39236",
"V. c #CE9833",
"C. c #C69439",
"Z. c #C9963C",
"A. c #CC993D",
"S. c #C79937",
"D. c #D19C35",
"F. c #D49D39",
"G. c #D09631",
"H. c #DAA121",
"J. c #DBA02C",
"K. c #DCA43E",
"L. c #DAA239",
"P. c #E2A635",
"I. c #E6A93C",
"U. c #85855D",
"Y. c #958B57",
"T. c #BB9740",
"R. c #BD9C46",
"E. c #BB9C48",
"W. c #8D8B62",
"Q. c #8D926C",
"!. c #959468",
"~. c #939775",
"^. c #A39867",
"/. c #A2A070",
"(. c #B7A465",
"). c #C29342",
"_. c #C19A41",
"`. c #CD9A42",
"'. c #C09F49",
"]. c #D29D44",
"[. c #C3A54F",
"{. c #C5A046",
"}. c #D6A347",
"|. c #C2A751",
" X c #CBA550",
".X c #CDB158",
"XX c #D3B65C",
"oX c #D9B156",
"OX c #D9AA57",
"+X c #E1A743",
"@X c #E6AB45",
"#X c #DEBF65",
"$X c #D4BB68",
"%X c #C6B375",
"&X c #E5BE69",
"*X c #DCC674",
"=X c #DBCA7C",
"-X c #E8C36D",
";X c #E5C675",
":X c #E4C679",
">X c #AEB285",
",X c #C1BB83",
"<X c #DACA84",
"1X c #DAD996",
"2X c #D4D48B",
"3X c #E4D78A",
"4X c #E5D682",
"5X c #E6DC94",
"6X c #E8E08B",
"7X c #ECE394",
"8X c #E3E39B",
"9X c #E7E99E",
"0X c #F9ED98",
"qX c #FAF49D",
"wX c #F5F0A1",
"eX c #E3E5A3",
/* pixels */
"].].Z.C.C.C.Z.Z...~ C.B.T w.`.`.A.C.C.Z.A.t.T w.`.9.~ Z.].A.C.C.",
"t.m.Z.A.A.C.Z.C.r.9.t.r.,.w.p.C.A.C.Z.C.Z.B.9.9.p.9.9.r.B.C.Z.A.",
"T 5.Z.A.Z.C.C.C.Z.B...X.C.w.} t.A.Z.C.C.C.C.A.w.} t.B...9.C.A.C.",
"e.D.K.t.9.B.A.C.Z.`.r.t.A.S.v.K.V.w.r.A.Z.Z.`.p.w.C.A.v.F.L.t...",
"a.a.g.5.| t.Z.Z.C.C.A.A.Z.M.M.a.t...w.m.Z.C.B.C.A.S.C.C.a.a.,.~ ",
"0 q t ;.L.O.X.A.r.5.L.L.e.k 3 , f F.b.{ m.C.5.B.+XV.^ e 2 i %.P.",
"D S x =.s.g.a.t.4.~ %.,.6.@.x x N u.g.d.p.y.) ^ -.| Q b A D 2.1.",
"5XeX1XN i >X*X.._ T 1 e O.XX1XeX/.5 J 5XT.) 4.g ; s e.=X9X2XG 7 ",
".X#X:X^.U.(. Xz.n.t.< O p V W.Q.F o 0 W.f.n.n.Q r u.$XXX#X-X^.K ",
"L [ N.:X3X:.] Z.@XC.4     . . . .     $ %.@X].e.7.*X<X>.( N.;XwX",
"s. .[ `.OXw.P a u y +                   4 u u @.G.Z.T.p. .[ `.&X",
"Z.a.q.y.x.b.R X                               m +X8.U p.g.0.y.y.",
"/ {.3XE.| P.;.O                               M @Xx.U ) |.3XR.Y ",
"` g.$X_.,.;.n X                               t #.w.6._ f.$X_.+.",
"| } o.D.M.t                                     % R j.7.{ { c.I.",
"z j O.H.t.>                                       : e e l ' l.n.",
"C x ~ 4.R :                                       % % . t 5...~ ",
"9 q : : = .                                     # @.$.% * v c 0 ",
"C 6   , a o                                     + q.B.: & 8 c N ",
"9 6 o u.h.,                                     O W ..: & 9 *.@X",
"~.~.U.U.n %                                     O s | Y.Q.!.2.M ",
"7XqX6XJ * .                                     O d B.4XqX5XH 7 ",
"i.Z.oX%XQ.2                                     + Y.=XR.C.OX%X>X",
"( (  .-X<X5                                     # !.:X>.( <.&X0X",
"A.y.U V.).3                                     O j c.S.,./ p.}.",
"t.f.[.S.] :                                     O d O.e.).|.s. .",
"I '.7XoXY =         X X   . X . . X .   X X     O j 6./ [.7XR.I ",
") w.R.}.>.<       @ j g + r E : : E r + g j @   O R k.O.r.R.B.z.",
"6.) I G.).3       = k.5.% R H.w w H.R @ 5.k.=   O E l.k.} I c.@X"
};
