/* XPM */
static char *_d33a570e4074798a1159f68727e53efDso9yTYHj1LdQFkB[] = {
/* columns rows colors chars-per-pixel */
"34 32 224 2 ",
"   c None",
".  c black",
"X  c #000001",
"o  c #030101",
"O  c #070101",
"+  c #070403",
"@  c #0B0100",
"#  c #090201",
"$  c #0D0201",
"%  c #0F0301",
"&  c #080504",
"*  c #090604",
"=  c #0B0704",
"-  c #090805",
";  c #250600",
":  c #260701",
">  c #220802",
",  c #240802",
"<  c #290801",
"1  c #2B0901",
"2  c #2A0A02",
"3  c #2B0A02",
"4  c #2D0A02",
"5  c #2E0A02",
"6  c #2F0A02",
"7  c #2F0B02",
"8  c #310B02",
"9  c #340901",
"0  c #340A01",
"q  c #350A01",
"w  c #360A01",
"e  c #340C02",
"r  c #350C02",
"t  c #340E04",
"y  c #390B01",
"u  c #3B0B01",
"i  c #390B02",
"p  c #380D03",
"a  c #390D03",
"s  c #3A0D03",
"d  c #3B0D03",
"f  c #3C0C02",
"g  c #3C0D03",
"h  c #3D0E03",
"j  c #3E0E03",
"k  c #3F0E03",
"l  c #23150C",
"z  c #24160D",
"x  c #27180D",
"c  c #26180E",
"v  c #261A0F",
"b  c #271A0F",
"n  c #281A0F",
"m  c #2B1B0F",
"M  c #2C1B0F",
"N  c #331006",
"B  c #341006",
"V  c #3C1206",
"C  c #32190D",
"Z  c #311C0F",
"A  c #341C0F",
"S  c #2F1C10",
"D  c #2F1D10",
"F  c #342012",
"G  c #362112",
"H  c #352213",
"J  c #322314",
"K  c #342414",
"L  c #392313",
"P  c #3A2313",
"I  c #3C2010",
"U  c #3A2413",
"Y  c #3B2414",
"T  c #3C2514",
"R  c #3D2514",
"E  c #3E2615",
"W  c #3C2716",
"Q  c #400E03",
"!  c #410F03",
"~  c #551102",
"^  c #551202",
"/  c #681704",
"(  c #681804",
")  c #6B1804",
"_  c #59371E",
"`  c #5B391F",
"'  c #662D14",
"]  c #672F16",
"[  c #692D14",
"{  c #693A1E",
"}  c #6A3B1E",
"|  c #653F22",
" . c #663F22",
".. c #674022",
"X. c #694022",
"o. c #694123",
"O. c #6E4324",
"+. c #881C03",
"@. c #881F05",
"#. c #8C1F04",
"$. c #8F2005",
"%. c #902005",
"&. c #902105",
"*. c #922105",
"=. c #992004",
"-. c #992104",
";. c #992205",
":. c #B82402",
">. c #B82502",
",. c #BE2703",
"<. c #BE2704",
"1. c #B92A06",
"2. c #BA2A06",
"3. c #BB2A06",
"4. c #BC2805",
"5. c #BD2805",
"6. c #BE2A05",
"7. c #BF2A05",
"8. c #BC2A06",
"9. c #BD2B06",
"0. c #B83A12",
"q. c #B93A12",
"w. c #BC3B13",
"e. c #C02B06",
"r. c #C52D07",
"t. c #C62D07",
"y. c #C72D07",
"u. c #C92D07",
"i. c #CC2E07",
"p. c #CD2E07",
"a. c #CF2F07",
"s. c #EC3508",
"d. c #ED3608",
"f. c #EE3608",
"g. c #FA3808",
"h. c #FC3908",
"j. c #FD3908",
"k. c #FF3A08",
"l. c #FF3B08",
"z. c #89542C",
"x. c #88542D",
"c. c #8B572E",
"v. c #8E572E",
"b. c #8D582F",
"n. c #945B30",
"m. c #9B5F32",
"M. c #9B6033",
"N. c #BA612F",
"B. c #A06435",
"V. c #B76130",
"C. c #BC6230",
"Z. c #BC6331",
"A. c #B66F3B",
"S. c #B6703B",
"D. c #B6713C",
"F. c #BA743E",
"G. c #BE743D",
"H. c #BC753E",
"J. c #BE753E",
"K. c #BF753E",
"L. c #BF763F",
"P. c #CB4216",
"I. c #CA4317",
"U. c #D04719",
"Y. c #FF4F18",
"T. c #FE5019",
"R. c #FF5119",
"E. c #FF521A",
"W. c #FF531A",
"Q. c #FF531B",
"!. c #EF5922",
"~. c #F15922",
"^. c #F15A23",
"/. c #FF5F24",
"(. c #CB6B35",
"). c #CC6A34",
"_. c #CF6D35",
"`. c #D46E36",
"'. c #C0763E",
"]. c #C1763E",
"[. c #C2773F",
"{. c #CA773E",
"}. c #C3783F",
"|. c #D57037",
" X c #FF7937",
".X c #BC7941",
"XX c #CB7A40",
"oX c #CF7A40",
"OX c #C87C42",
"+X c #CB7D42",
"@X c #CA7D43",
"#X c #C97E43",
"$X c #CB7E43",
"%X c #CD7E42",
"&X c #CE7F43",
"*X c #CF7F43",
"=X c #EF803F",
"-X c #FB823F",
";X c #FE833F",
":X c #D08043",
">X c #D08245",
",X c #D48244",
"<X c #D68345",
"1X c #ED8141",
"2X c #F08140",
"3X c #FF8540",
"4X c #FF8742",
"5X c #FF8842",
"6X c #FF8843",
"7X c #E9914D",
"8X c #ED914C",
"9X c #ED924D",
"0X c #EE924D",
"qX c #EF954F",
"wX c #F0944E",
"eX c #F89850",
"rX c #FA9C52",
"tX c #FF9D52",
"yX c #FF9D53",
"uX c #FF9E53",
"iX c #FF9F54",
"pX c #FFA054",
"aX c #FFA055",
"sX c #FFA456",
/* pixels */
"                    X X X X X X X X X X X X                         ",
"                    r d d d p p d d d d d r                         ",
"                X 8 *.4.3.3.3.1.1.3.3.3.9.*.8 X                     ",
"                8 ( i.l.l.l.l.l.l.l.l.l.l.p.( 8                     ",
"            X r *.p.s.l.g.l.l.l.l.g.g.g.l.s.p.*.r X                 ",
"            X d 4.l.l.g.g.s.i.4.3.p.s.l.g.g.l.5.d X                 ",
"            X d 4.l.g.l.l.a.) r 8 ) a.l.l.g.l.5.d X                 ",
"            X g 4.l.l.s.a.@., X X , @.p.s.l.l.5.g X                 ",
"        X X X g e.l.l.a.( > X X X X > ( a.l.l.4.g X X X             ",
"        X X X 5 $.6.6.-.~ 0 d g g d 9 ~ ;.7.7.$.5 X X X             ",
"        X X X $ < 0 9 ~ ;.4.4.4.,.4.4.;.~ 9 r < $ X X X             ",
"        U M * * x K J ] U.Q.T.T.T.T.Q.U.] J J x * - D L             ",
"    X P m.v.x z x.G.F.{.1X;X;X-X-X;X3X2X{.F.G.x.z x v.m.P X         ",
"    X E }.<XO.X.*XaXtX9X@X:X7XrXrX7X:X@X9XtXaX*XX.O.<X}.E X         ",
"    X T '.eX,X*X8XtXtX@X....OXaXrXOX..| @XtXtX8X*X:XeX'.T X         ",
"    X G n.G.'.:X9XtXtXD.D D D.rXaXD.D D S.tXtXwX:X'.G.n.G X         ",
"        G U U O.:XaXtXS.D M D.aXaXS.D D S.tXaX:XO.U U G             ",
"        X X X x z.>XwX@XX.{ _.;X3X(.{ X.@XwX:Xx.x X X X             ",
"            X + l ..@XwX>X_.~.Y.Y.!._.>XwX@X..l + X                 ",
"            X * x { ).=XoXZ.0.:.:.0.Z.oX=X).{ x * X                 ",
"        X X X x b.`.~.P.[ A B 0 0 B A [ P.~.`.b.n X X X             ",
"        G Y U ` B.|.~.P.' Z N 0 0 B M ] I.~.`.B.` U U G             ",
"    X G n.G.G.m.` { (.1X@XV.0.>.:.0.Z.{.1X(.} _ M.'.G.n.G X         ",
"    X U G.sXsXG.J C Z.6X5X X/.T.T./. X5X5XZ.C J G.sXaX'.U X         ",
"    X T G.sXsXG.J N w.T.Q./. X3X5X X/.T.Q.w.8 K L.sXsXG.E X         ",
"    X G n.'.}.b.x ; +.6.6.w.Z..X.XZ.w.,.4.+., x c.}.'.n.G X         ",
"        G T E n - O , r u V I E W I V d d : O - m T T G             ",
"        X X X @ 9 ! Q 2 @ X X X X X X @ 5 g Q 5 @ X X X             ",
"            X < $.i.y.$.5 X X X X X X < #.i.y.$.< X                 ",
"            X d ;.y.y.$.5 X X X X X X 7 $.i.y.-.d X                 ",
"                d g Q 7 % X         X % 8 V g d                     ",
"                X X X X X X         X X X X X X                     "
};
