/* XPM */
static char *result[] = {
/* columns rows colors chars-per-pixel */
"28 32 224 2 ",
"   c black",
".  c #000001",
"X  c #030101",
"o  c #070101",
"O  c #070403",
"+  c #0B0100",
"@  c #090201",
"#  c #0D0201",
"$  c #0F0301",
"%  c #080504",
"&  c #090604",
"*  c #0B0704",
"=  c #090805",
"-  c #250600",
";  c #260701",
":  c #220802",
">  c #240802",
",  c #290801",
"<  c #2B0901",
"1  c #2A0A02",
"2  c #2B0A02",
"3  c #2D0A02",
"4  c #2E0A02",
"5  c #2F0A02",
"6  c #2F0B02",
"7  c #310B02",
"8  c #340901",
"9  c #340A01",
"0  c #350A01",
"q  c #360A01",
"w  c #340C02",
"e  c #350C02",
"r  c #340E04",
"t  c #390B01",
"y  c #3B0B01",
"u  c #390B02",
"i  c #380D03",
"p  c #390D03",
"a  c #3A0D03",
"s  c #3B0D03",
"d  c #3C0C02",
"f  c #3C0D03",
"g  c #3D0E03",
"h  c #3E0E03",
"j  c #3F0E03",
"k  c #23150C",
"l  c #24160D",
"z  c #27180D",
"x  c #26180E",
"c  c #261A0F",
"v  c #271A0F",
"b  c #281A0F",
"n  c #2B1B0F",
"m  c #2C1B0F",
"M  c #331006",
"N  c #341006",
"B  c #3C1206",
"V  c #32190D",
"C  c #311C0F",
"Z  c #341C0F",
"A  c #2F1C10",
"S  c #2F1D10",
"D  c #342012",
"F  c #362112",
"G  c #352213",
"H  c #322314",
"J  c #342414",
"K  c #392313",
"L  c #3A2313",
"P  c #3C2010",
"I  c #3A2413",
"U  c #3B2414",
"Y  c #3C2514",
"T  c #3D2514",
"R  c #3E2615",
"E  c #3C2716",
"W  c #400E03",
"Q  c #410F03",
"!  c #551102",
"~  c #551202",
"^  c #681704",
"/  c #681804",
"(  c #6B1804",
")  c #59371E",
"_  c #5B391F",
"`  c #662D14",
"'  c #672F16",
"]  c #692D14",
"[  c #693A1E",
"{  c #6A3B1E",
"}  c #653F22",
"|  c #663F22",
" . c #674022",
".. c #694022",
"X. c #694123",
"o. c #6E4324",
"O. c #881C03",
"+. c #881F05",
"@. c #8C1F04",
"#. c #8F2005",
"$. c #902005",
"%. c #902105",
"&. c #922105",
"*. c #992004",
"=. c #992104",
"-. c #992205",
";. c #B82402",
":. c #B82502",
">. c #BE2703",
",. c #BE2704",
"<. c #B92A06",
"1. c #BA2A06",
"2. c #BB2A06",
"3. c #BC2805",
"4. c #BD2805",
"5. c #BE2A05",
"6. c #BF2A05",
"7. c #BC2A06",
"8. c #BD2B06",
"9. c #B83A12",
"0. c #B93A12",
"q. c #BC3B13",
"w. c #C02B06",
"e. c #C52D07",
"r. c #C62D07",
"t. c #C72D07",
"y. c #C92D07",
"u. c #CC2E07",
"i. c #CD2E07",
"p. c #CF2F07",
"a. c #EC3508",
"s. c #ED3608",
"d. c #EE3608",
"f. c #FA3808",
"g. c #FC3908",
"h. c #FD3908",
"j. c #FF3A08",
"k. c #FF3B08",
"l. c #89542C",
"z. c #88542D",
"x. c #8B572E",
"c. c #8E572E",
"v. c #8D582F",
"b. c #945B30",
"n. c #9B5F32",
"m. c #9B6033",
"M. c #BA612F",
"N. c #A06435",
"B. c #B76130",
"V. c #BC6230",
"C. c #BC6331",
"Z. c #B66F3B",
"A. c #B6703B",
"S. c #B6713C",
"D. c #BA743E",
"F. c #BE743D",
"G. c #BC753E",
"H. c #BE753E",
"J. c #BF753E",
"K. c #BF763F",
"L. c #CB4216",
"P. c #CA4317",
"I. c #D04719",
"U. c #FF4F18",
"Y. c #FE5019",
"T. c #FF5119",
"R. c #FF521A",
"E. c #FF531A",
"W. c #FF531B",
"Q. c #EF5922",
"!. c #F15922",
"~. c #F15A23",
"^. c #FF5F24",
"/. c #CB6B35",
"(. c #CC6A34",
"). c #CF6D35",
"_. c #D46E36",
"`. c #C0763E",
"'. c #C1763E",
"]. c #C2773F",
"[. c #CA773E",
"{. c #C3783F",
"}. c #D57037",
"|. c #FF7937",
" X c #BC7941",
".X c #CB7A40",
"XX c #CF7A40",
"oX c #C87C42",
"OX c #CB7D42",
"+X c #CA7D43",
"@X c #C97E43",
"#X c #CB7E43",
"$X c #CD7E42",
"%X c #CE7F43",
"&X c #CF7F43",
"*X c #EF803F",
"=X c #FB823F",
"-X c #FE833F",
";X c #D08043",
":X c #D08245",
">X c #D48244",
",X c #D68345",
"<X c #ED8141",
"1X c #F08140",
"2X c #FF8540",
"3X c #FF8742",
"4X c #FF8842",
"5X c #FF8843",
"6X c #E9914D",
"7X c #ED914C",
"8X c #ED924D",
"9X c #EE924D",
"0X c #EF954F",
"qX c #F0944E",
"wX c #F89850",
"eX c #FA9C52",
"rX c #FF9D52",
"tX c #FF9D53",
"yX c #FF9E53",
"uX c #FF9F54",
"iX c #FFA054",
"pX c #FFA055",
"aX c #FFA456",
"sX c None",
/* pixels */
"sXsXsXsXsXsXsXsX. . . . . . . . . . . . sXsXsXsXsXsXsXsX",
"sXsXsXsXsXsXsXsXe s s a a a a a a s s e sXsXsXsXsXsXsXsX",
"sXsXsXsXsXsX. 7 &.8.7.<.<.<.<.<.<.7.8.&.7 . sXsXsXsXsXsX",
"sXsXsXsXsXsX7 / u.j.j.j.j.j.j.j.j.j.j.u./ 7 sXsXsXsXsXsX",
"sXsXsXsX. e &.u.s.h.h.h.j.j.j.j.h.h.h.s.u.&.e . sXsXsXsX",
"sXsXsXsX. s 8.j.h.f.g.a.u.1.1.u.a.g.f.h.j.8.s . sXsXsXsX",
"sXsXsXsX. s 2.j.h.g.j.p.( w w ( p.j.g.h.j.2.s . sXsXsXsX",
"sXsXsXsX. f 8.j.j.d.i.+.> . . > +.i.d.j.j.8.f . sXsXsXsX",
"sXsX. . . g w.k.k.p.^ : X . . X : ^ p.k.k.w.g . . . sXsX",
"sXsX    . 3 @.6.5.=.~ 9 u d d u 9 ~ =.5.6.@.3 .     sXsX",
"sXsX    . # , 0 8 ! *.3.4.3.3.4.3.*.! 8 0 , # .     sXsX",
"sXsXK m * & v J H ' I.W.R.Y.Y.R.W.I.' H J v & * m K sXsX",
"  L n.c.z l z.G.D.[.1X2X-X=X=X-X2X1X[.D.G.z.l z c.n.L   ",
"  R {.,Xo...$XuXyX8X#X@X6XeXeX6X@X#X8XyXuX$X..o.,X{.R   ",
"  Y `.wX>X%X7XrXtXOX| } oXyXyXoX} | OXtXrX7X%X>XwX`.Y   ",
"  F b.F.'.;X9XtXrXA.S S S.uXuXS.S S A.rXtX9X;X'.F.b.F   ",
"sXsXF K I o.;XiXyXZ.A S S.pXpXS.S A Z.yXiX;Xo.I K F sXsX",
"sXsX      z l.&XqX+XX.[ (.2X2X(.[ X.+XqX&Xl.z       sXsX",
"sXsXsXsX  O k  .#X0X:X).Q.U.U.Q.).:X0X#X .k O   sXsXsXsX",
"sXsXsXsX  % x { (.*XXXV.0.;.;.0.V.XX*X(.{ x %   sXsXsXsX",
"sXsX      b v._.!.L.] Z N q q N Z ] L.!._.v.b       sXsX",
"sXsXF K K _ N.}.~.P.` C M q q M C ` P.~.}.N._ K K F sXsX",
"  F b.J.`.m.) { /.<X.XB.9.:.:.9.B..X<X/.{ ) m.`.J.b.F   ",
"  U J.aXaXH.D V M.5X4X|.^.T.T.^.|.4X5XM.V D H.aXaXJ.U   ",
"  U J.aXaXK.G r q.W.E.^.|.3X3X|.^.E.W.q.r G K.aXaXJ.U   ",
"  F b.`.].x.c - O.,.>.q.C. X XC.q.>.,.O.- c x.].`.b.F   ",
"sXsXF Y T n = o ; t y B P E E P B y t ; o = n T Y F sXsX",
"sXsX      + 5 Q h 1 @             @ 1 h Q 5 +       sXsX",
"sXsXsXsX  < $.y.t.#.2 .         . 2 #.t.y.$.<   sXsXsXsX",
"sXsXsXsX. i -.e.r.%.4 . . . . . . 4 %.r.e.-.i . sXsXsXsX",
"sXsXsXsXsXsXp j W 6 $ . sXsXsXsX. $ 6 W j p sXsXsXsXsXsX",
"sXsXsXsXsXsX. . . . . . sXsXsXsX. . . . . . sXsXsXsXsXsX"
};
