/* XPM */
static char *result[] = {
/* columns rows colors chars-per-pixel */
"32 32 11 1 ",
"  c #3AB500",
". c #C9FF64",
"X c #B5FF52",
"o c #BFFF5B",
"O c #DEFF77",
"+ c #D3FF6D",
"@ c #4BC700",
"# c #0C4500",
"$ c #E5FF78",
"% c #002D00",
"& c white",
/* pixels */
" .XoX. O .XoX. O .XoX. O .XoX. O",
"+X. +@O +X. +@O +X. +@O +X. +@O ",
" + O@#@$ + O@#@$ + O@#@$ + O@#@$",
"$ + +@$%$ + +@$%$ + +@$%$ + +@$%",
" +X.X+ $ +X.X+ $ +X.X+ $ +X.X+ $",
"O@+ + O O@+ + O O@+ + O O@+ + O ",
"@#@+ + O@#@+ + O@#@+ + O@#@+ + O",
"O@.XoX+ O@.XoX+ O@.XoX+ O@.XoX+ ",
" .XoX. O .XoX. O .XoX. O .XoX. O",
"+X. +@O +X. +@O +X. +@O +X. +@O ",
" + O@#@$ + O@#@$ + O@#@$ + O@#@$",
"$ + +@$%$ + +@$%$ + +@$%$ + +@$%",
" +X.X+ $ +X.X+ $ +X.X+ $ +X.X+ $",
"O@+ + O O@+ + O O@+ + O O@+ + O ",
"@#@+ + O@#@+ + O@#@+ + O@#@+ + O",
"O@.XoX+ O@.XoX+ O@.XoX+ O@.XoX+ ",
" .XoX. O .XoX. O .XoX. O .XoX. O",
"+X. +@O +X. +@O +X. +@O +X. +@O ",
" + O@#@$ + O@#@$ + O@#@$ + O@#@$",
"$ + +@$%$ + +@$%$ + +@$%$ + +@$%",
" +X.X+ $ +X.X+ $ +X.X+ $ +X.X+ $",
"O@+ + O O@+ + O O@+ + O O@+ + O ",
"@#@+ + O@#@+ + O@#@+ + O@#@+ + O",
"O@.XoX+ O@.XoX+ O@.XoX+ O@.XoX+ ",
" .XoX. O .XoX. O .XoX. O .XoX. O",
"+X. +@O +X. +@O +X. +@O +X. +@O ",
" + O@#@$ + O@#@$ + O@#@$ + O@#@$",
"$ + +@$%$ + +@$%$ + +@$%$ + +@$%",
" +X.X+ $ +X.X+ $ +X.X+ $ +X.X+ $",
"O@+ + O O@+ + O O@+ + O O@+ + O ",
"@#@+ + O@#@+ + O@#@+ + O@#@+ + O",
"O@.XoX+ O@.XoX+ O@.XoX+ O@.XoX+ "
};
