/* XPM */
static char *b656c1a01b994ae49f4227a263331659kxkjUqdGyhflAX6h[] = {
/* columns rows colors chars-per-pixel */
"32 32 225 2 ",
"   c #27193A",
".  c #1F2330",
"X  c #2A2E34",
"o  c #2E253E",
"O  c #282737",
"+  c #31293E",
"@  c #2F3634",
"#  c #35353C",
"$  c #3A3D3D",
"%  c #353D36",
"&  c #202B2D",
"*  c #1B4013",
"=  c #285A14",
"-  c #1D6200",
";  c #1F7400",
":  c #2A6E0E",
">  c #256D06",
",  c #316F0F",
"<  c #2F7605",
"1  c #2D7C02",
"2  c #2D740D",
"3  c #2E7C0C",
"4  c #30740E",
"5  c #337906",
"6  c #2C6411",
"7  c #2E6C12",
"8  c #2D631D",
"9  c #326B13",
"0  c #31621F",
"q  c #32671B",
"w  c #2F7810",
"e  c #2E7311",
"r  c #317312",
"t  c #387D13",
"y  c #2E5523",
"u  c #345C24",
"i  c #385A2C",
"p  c #38562C",
"a  c #354134",
"s  c #3B4C34",
"d  c #3C433B",
"f  c #3D4938",
"g  c #394635",
"h  c #3A5132",
"j  c #355032",
"k  c #2D432A",
"l  c #346222",
"z  c #376921",
"x  c #427F16",
"c  c #434C3C",
"v  c #494D3F",
"b  c #435B36",
"n  c #45553A",
"m  c #445939",
"M  c #4B593A",
"N  c #52593E",
"B  c #40612F",
"V  c #49732C",
"C  c #456134",
"Z  c #4C6737",
"A  c #4D7332",
"S  c #52762F",
"D  c #2E1A43",
"F  c #371A4B",
"G  c #372A43",
"H  c #3B2D46",
"J  c #3B2D48",
"K  c #372346",
"L  c #3C3444",
"P  c #3E3B42",
"I  c #3B3345",
"U  c #43284D",
"Y  c #413B45",
"T  c #43344B",
"R  c #483848",
"E  c #533F4B",
"W  c #412952",
"Q  c #3F4141",
"!  c #4B4C42",
"~  c #484844",
"^  c #53494A",
"/  c #514E46",
"(  c #535543",
")  c #555748",
"_  c #685E4D",
"`  c #5E7241",
"'  c #586447",
"]  c #6F6D50",
"[  c #677047",
"{  c #2C8300",
"}  c #2B8800",
"|  c #318302",
" . c #358A09",
".. c #349401",
"X. c #3A9707",
"o. c #3B8914",
"O. c #37A601",
"+. c #2EB200",
"@. c #469D0C",
"#. c #478B1C",
"$. c #4B931E",
"%. c #4A991A",
"&. c #52971F",
"*. c #4AB607",
"=. c #51B40E",
"-. c #4BA513",
";. c #52AB15",
":. c #55A71C",
">. c #52B312",
",. c #54BA11",
"<. c #5ABB15",
"1. c #58B41A",
"2. c #548526",
"3. c #528229",
"4. c #579E21",
"5. c #58A422",
"6. c #57A320",
"7. c #6BBC25",
"8. c #4BC300",
"9. c #54CD03",
"0. c #56C20E",
"q. c #59C60C",
"w. c #5BCC0C",
"e. c #50C304",
"r. c #5BD606",
"t. c #55C514",
"y. c #5AC514",
"u. c #5CC51A",
"i. c #5CC819",
"p. c #5ECB13",
"a. c #4FC511",
"s. c #60CF0F",
"d. c #63D60E",
"f. c #63D90D",
"g. c #60DE06",
"h. c #61CD13",
"j. c #65CC19",
"k. c #62C619",
"l. c #65D313",
"z. c #69D315",
"x. c #6DDC15",
"c. c #6BD41A",
"v. c #6ED91B",
"b. c #67D614",
"n. c #73DB1C",
"m. c #65E209",
"M. c #68E809",
"N. c #6BF209",
"B. c #6DE317",
"V. c #77E917",
"C. c #78F515",
"Z. c #6BC724",
"A. c #72C829",
"S. c #73CC26",
"D. c #6ED125",
"F. c #71D226",
"G. c #7CDC26",
"H. c #73D329",
"J. c #7CD62C",
"K. c #7EDC29",
"L. c #76D825",
"P. c #7CE326",
"I. c #81FA17",
"U. c #91DF3B",
"Y. c #82E12C",
"T. c #87EE29",
"R. c #8DFA2A",
"E. c #8FE438",
"W. c #94E53E",
"Q. c #97E83B",
"!. c #9AF23A",
"~. c #A5F33B",
"^. c #8E9753",
"/. c #9D9C54",
"(. c #889D4B",
"). c #9BA94E",
"_. c #97BC4B",
"`. c #97A255",
"'. c #89B046",
"]. c #ABBE5A",
"[. c #9BC44B",
"{. c #9ACE4A",
"}. c #97C946",
"|. c #9DD449",
" X c #9CD845",
".X c #A3C84D",
"XX c #A2D942",
"oX c #A2C652",
"OX c #ABCB55",
"+X c #A9CE59",
"@X c #ADD753",
"#X c #B5CF5A",
"$X c #97E442",
"%X c #9BE543",
"&X c #9DEA44",
"*X c #9AE944",
"=X c #A1EC43",
"-X c #A4EB49",
";X c #AAED4D",
":X c #A2E749",
">X c #A4F145",
",X c #A7F24A",
"<X c #ABF34D",
"1X c #ADFC46",
"2X c #BDFC4B",
"3X c #B5FA4B",
"4X c #ACEE50",
"5X c #B6EF58",
"6X c #B2EE56",
"7X c #AEF252",
"8X c #AFFA51",
"9X c #B3F552",
"0X c #B5FC53",
"qX c #B9FF56",
"wX c #BCF459",
"eX c #BDFD5A",
"rX c #B8F457",
"tX c #C3FE5C",
"yX c #C9FF56",
"uX c #C9FF50",
"iX c #C5FF61",
"pX c #CBFF65",
"aX c #D2FF6A",
"sX c #D4FF63",
"dX c #E2FF77",
/* pixels */
"dXrXc.O.- - O.v.tXyXx.X.& R ].2XI.=.a   * ; O.v.tXwXu.t.7X7Xi.+.",
"9X:XK.,.1 { <.J.}. XG.6.X R OX2XI.=.d o 6 X.p.J.{.}.A.F.$X$XD.u.",
"u.F.*XU.,.,.%X{.2.2.XX_.T T ].2XI.>.d P @.B.>X{.3.3.}.:XF.D.$X4X",
"t.H.7X0XY.Y.<X|.2.S )./.N Z }.~.x.@.s s :.L.<X|.2.3.{.:XF.H.7XpX",
"&X<X0XqX9X=XP.G.XX)._ N &.h.V.z.@.1 2 0 s A D.T.XX}.A.S.$X7XqXqX",
",X<X8XqXqXW.1.5.oX/.U @ ,.N.w.@.< > 1 6 G Y o.7.oXoXA.F.*X0XqXqX",
"t.H.7XqXR.u.i # ( ^ F f h.f.A s 6 1 1 9 P T f n ^ ] .X~.P.K.8XpX",
"t.D.$XW.Z.$.( R + + d S 0.;.~ G 6 { { 4 p P L K O c `.[.1.,.$X7X",
"4X*XP.:.B N /./.E % 4.q.O.r Y L q { { { 4 l P P = z ( ( 7 } t.b.",
"pX0XP.:.# R /./.E g =.9.3 y d h 4 1 9 r { w d Q z 8 G X 6 ..t.b.",
"qX0X1X}.v K R ^ U %  .o.h g l 2 { 4 s h 3 w f T Q Q G j X.w.E.,X",
"8XqXtXoX( o % s M B q y J ~ r { 2 i Y Y l q h d f P G ! 7.R.0XiX",
"qXyXyXOX^ $ &.d.d.:.b J J Q r 4 h T T T P f 0 r r y + ^ }.uXuXtX",
"_.[..X(.! p *.m.d.:.b I P p 4 4 s c d g ~ s 4 { } 2 k ( `.OXoX[.",
"# ~ ! M l 4 ..o.C v z 9 r 4 1 < 9 9 r 4 9 9 < 1 { 1 2 z ( ) / ~ ",
"Y H D X : { : y $ % r { 2 4 < 1 { { 4 4 1 { 1 < 9 2 { 2 X D @ a ",
"].^.T & : 3 p d u 2 { w h s 9 { { r h h 2 { { 9 s h w : O # o.*.",
"uX.X[ c u u P Q r } 2 u T P 9 { 4 u Y Y u 3 { 9 Q P u l ! ` Z.C.",
"k.S.}.^.! O J f w | i P J # r 3 h Y T T ~ p 3 2 f J K ! (.@X6X0X",
"0.L.qX@X` I H $ 8 u d R v b q u f Q d d L d l u $ I # S @XtX0X4X",
"W.,XtX9XS.#.d K I # H m :.:.c # u 7 6 = Q Y P # K d #.S.rXrXJ.t.",
"eXqX<X!.C.0.V f n ~ J m h.z.A g 7 } ..o.f J c n c V 0.C.!.*XD.t.",
"tX,XG.l.f.w.<.<.p.4.I $ 1.g.y.@.1 | e.:.P P 6.h.1.<.w.f.z.L.W.-X",
"iX>Xl.8.w.l.g.m.p.:.C Z <.M.I.j.5 | r.b.A M 6.l.m.m.d.w.8.z.,XiX",
"aX<Xj.*.9.d.m.<.C m 5.h.r.C.1X Xx 1 9.N.z.:.m Z <.m.d.w.8.h.>XtX",
";X%XY.c.s.r.g.1.n m >.9.=.7.;X X#.> %.k.g.;.a a :.g.r.w.h.Y.<XtX",
"t.F.:X:Xz.e.e.q.1.:.X.9 % Z S.x.| = a n t 1 = 6 *.r.9.h.E.9XtXiX",
"y.F.&X:XY.c.c.x.M.9...6 % n &.*.X., f f 9 1 { @.j.n.z.G.8XeX7X&X",
"4X$XD.S.%X9X7XQ.x.9.*.*.=.$.j i -.q.>.;.=.*.*.q.$X8X,X,XqX,XD.a.",
"7X%XD.D.W.wXtX<Xc.w.x.V.C.Z.' ( <.M.V.V.x.b.B.Y.&X8XeXeXeX>XH.t.",
"u.F.&X:XL.Y.wX7Xj.p.W.8X1X,XOX[.k.z.~.=Xx.x.=X:XF.H.<XiXqX8X7X-X",
"+.i.5XwXz.z.<X7Xj.h.7XpXiXiXsX<Xh.j.5XwXn.n.wX5Xu.t.*XiXqXqXpXaX"
};
